<mxfile host="app.diagrams.net" modified="2024-04-03T14:05:05.303Z" agent="Mozilla/5.0 (X11; Linux x86_64) AppleWebKit/537.36 (KHTML, like Gecko) Chrome/123.0.0.0 Safari/537.36" etag="RjtzwJIQIun4Ek5XhqVy" version="24.2.1" type="device">
  <diagram name="Page-1" id="Kd4OWiiaBXPqI-1jIOpH">
    <mxGraphModel dx="1005" dy="-103" grid="1" gridSize="10" guides="1" tooltips="1" connect="1" arrows="1" fold="1" page="1" pageScale="1" pageWidth="827" pageHeight="1169" math="0" shadow="0">
      <root>
        <mxCell id="0" />
        <mxCell id="1" parent="0" />
        <mxCell id="aQMUI7H4iZoZkPq_P-1r-4" value="names" style="swimlane;fontStyle=0;childLayout=stackLayout;horizontal=1;startSize=30;horizontalStack=0;resizeParent=1;resizeParentMax=0;resizeLast=0;collapsible=1;marginBottom=0;whiteSpace=wrap;html=1;" parent="1" vertex="1">
          <mxGeometry x="260" y="1920" width="160" height="150" as="geometry" />
        </mxCell>
        <mxCell id="aQMUI7H4iZoZkPq_P-1r-5" value="nconst (ID)" style="text;strokeColor=none;fillColor=none;align=left;verticalAlign=middle;spacingLeft=4;spacingRight=4;overflow=hidden;points=[[0,0.5],[1,0.5]];portConstraint=eastwest;rotatable=0;whiteSpace=wrap;html=1;" parent="aQMUI7H4iZoZkPq_P-1r-4" vertex="1">
          <mxGeometry y="30" width="160" height="30" as="geometry" />
        </mxCell>
        <mxCell id="aQMUI7H4iZoZkPq_P-1r-6" value="primary_name" style="text;strokeColor=none;fillColor=none;align=left;verticalAlign=middle;spacingLeft=4;spacingRight=4;overflow=hidden;points=[[0,0.5],[1,0.5]];portConstraint=eastwest;rotatable=0;whiteSpace=wrap;html=1;" parent="aQMUI7H4iZoZkPq_P-1r-4" vertex="1">
          <mxGeometry y="60" width="160" height="30" as="geometry" />
        </mxCell>
        <mxCell id="aQMUI7H4iZoZkPq_P-1r-7" value="birth_year" style="text;strokeColor=none;fillColor=none;align=left;verticalAlign=middle;spacingLeft=4;spacingRight=4;overflow=hidden;points=[[0,0.5],[1,0.5]];portConstraint=eastwest;rotatable=0;whiteSpace=wrap;html=1;" parent="aQMUI7H4iZoZkPq_P-1r-4" vertex="1">
          <mxGeometry y="90" width="160" height="30" as="geometry" />
        </mxCell>
        <mxCell id="Uqo3-tNyK38vOnIBA2kN-1" value="death_year" style="text;strokeColor=none;fillColor=none;align=left;verticalAlign=middle;spacingLeft=4;spacingRight=4;overflow=hidden;points=[[0,0.5],[1,0.5]];portConstraint=eastwest;rotatable=0;whiteSpace=wrap;html=1;" vertex="1" parent="aQMUI7H4iZoZkPq_P-1r-4">
          <mxGeometry y="120" width="160" height="30" as="geometry" />
        </mxCell>
        <mxCell id="Uqo3-tNyK38vOnIBA2kN-2" value="titles" style="swimlane;fontStyle=0;childLayout=stackLayout;horizontal=1;startSize=30;horizontalStack=0;resizeParent=1;resizeParentMax=0;resizeLast=0;collapsible=1;marginBottom=0;whiteSpace=wrap;html=1;" vertex="1" parent="1">
          <mxGeometry x="260" y="1620" width="160" height="270" as="geometry" />
        </mxCell>
        <mxCell id="Uqo3-tNyK38vOnIBA2kN-3" value="tconst (ID)" style="text;strokeColor=none;fillColor=none;align=left;verticalAlign=middle;spacingLeft=4;spacingRight=4;overflow=hidden;points=[[0,0.5],[1,0.5]];portConstraint=eastwest;rotatable=0;whiteSpace=wrap;html=1;" vertex="1" parent="Uqo3-tNyK38vOnIBA2kN-2">
          <mxGeometry y="30" width="160" height="30" as="geometry" />
        </mxCell>
        <mxCell id="Uqo3-tNyK38vOnIBA2kN-4" value="title_type" style="text;strokeColor=none;fillColor=none;align=left;verticalAlign=middle;spacingLeft=4;spacingRight=4;overflow=hidden;points=[[0,0.5],[1,0.5]];portConstraint=eastwest;rotatable=0;whiteSpace=wrap;html=1;" vertex="1" parent="Uqo3-tNyK38vOnIBA2kN-2">
          <mxGeometry y="60" width="160" height="30" as="geometry" />
        </mxCell>
        <mxCell id="Uqo3-tNyK38vOnIBA2kN-5" value="primary_title" style="text;strokeColor=none;fillColor=none;align=left;verticalAlign=middle;spacingLeft=4;spacingRight=4;overflow=hidden;points=[[0,0.5],[1,0.5]];portConstraint=eastwest;rotatable=0;whiteSpace=wrap;html=1;" vertex="1" parent="Uqo3-tNyK38vOnIBA2kN-2">
          <mxGeometry y="90" width="160" height="30" as="geometry" />
        </mxCell>
        <mxCell id="Uqo3-tNyK38vOnIBA2kN-6" value="original_title" style="text;strokeColor=none;fillColor=none;align=left;verticalAlign=middle;spacingLeft=4;spacingRight=4;overflow=hidden;points=[[0,0.5],[1,0.5]];portConstraint=eastwest;rotatable=0;whiteSpace=wrap;html=1;" vertex="1" parent="Uqo3-tNyK38vOnIBA2kN-2">
          <mxGeometry y="120" width="160" height="30" as="geometry" />
        </mxCell>
        <mxCell id="Uqo3-tNyK38vOnIBA2kN-7" value="is_adult" style="text;strokeColor=none;fillColor=none;align=left;verticalAlign=middle;spacingLeft=4;spacingRight=4;overflow=hidden;points=[[0,0.5],[1,0.5]];portConstraint=eastwest;rotatable=0;whiteSpace=wrap;html=1;" vertex="1" parent="Uqo3-tNyK38vOnIBA2kN-2">
          <mxGeometry y="150" width="160" height="30" as="geometry" />
        </mxCell>
        <mxCell id="Uqo3-tNyK38vOnIBA2kN-8" value="start_year" style="text;strokeColor=none;fillColor=none;align=left;verticalAlign=middle;spacingLeft=4;spacingRight=4;overflow=hidden;points=[[0,0.5],[1,0.5]];portConstraint=eastwest;rotatable=0;whiteSpace=wrap;html=1;" vertex="1" parent="Uqo3-tNyK38vOnIBA2kN-2">
          <mxGeometry y="180" width="160" height="30" as="geometry" />
        </mxCell>
        <mxCell id="Uqo3-tNyK38vOnIBA2kN-9" value="end_year" style="text;strokeColor=none;fillColor=none;align=left;verticalAlign=middle;spacingLeft=4;spacingRight=4;overflow=hidden;points=[[0,0.5],[1,0.5]];portConstraint=eastwest;rotatable=0;whiteSpace=wrap;html=1;" vertex="1" parent="Uqo3-tNyK38vOnIBA2kN-2">
          <mxGeometry y="210" width="160" height="30" as="geometry" />
        </mxCell>
        <mxCell id="Uqo3-tNyK38vOnIBA2kN-10" value="runtime_minutes" style="text;strokeColor=none;fillColor=none;align=left;verticalAlign=middle;spacingLeft=4;spacingRight=4;overflow=hidden;points=[[0,0.5],[1,0.5]];portConstraint=eastwest;rotatable=0;whiteSpace=wrap;html=1;" vertex="1" parent="Uqo3-tNyK38vOnIBA2kN-2">
          <mxGeometry y="240" width="160" height="30" as="geometry" />
        </mxCell>
        <mxCell id="Uqo3-tNyK38vOnIBA2kN-24" style="edgeStyle=orthogonalEdgeStyle;rounded=0;orthogonalLoop=1;jettySize=auto;html=1;noEdgeStyle=1;orthogonal=1;" edge="1" parent="1" source="Uqo3-tNyK38vOnIBA2kN-11" target="Uqo3-tNyK38vOnIBA2kN-2">
          <mxGeometry relative="1" as="geometry">
            <Array as="points">
              <mxPoint x="172" y="1817.5" />
              <mxPoint x="248" y="1820" />
            </Array>
          </mxGeometry>
        </mxCell>
        <mxCell id="Uqo3-tNyK38vOnIBA2kN-25" style="edgeStyle=orthogonalEdgeStyle;rounded=0;orthogonalLoop=1;jettySize=auto;html=1;noEdgeStyle=1;orthogonal=1;" edge="1" parent="1" source="Uqo3-tNyK38vOnIBA2kN-11" target="aQMUI7H4iZoZkPq_P-1r-4">
          <mxGeometry relative="1" as="geometry">
            <Array as="points">
              <mxPoint x="172" y="1872.5" />
              <mxPoint x="248" y="1960" />
            </Array>
          </mxGeometry>
        </mxCell>
        <mxCell id="Uqo3-tNyK38vOnIBA2kN-11" value="junction_names_titles" style="swimlane;fontStyle=0;childLayout=stackLayout;horizontal=1;startSize=30;horizontalStack=0;resizeParent=1;resizeParentMax=0;resizeLast=0;collapsible=1;marginBottom=0;whiteSpace=wrap;html=1;" vertex="1" parent="1">
          <mxGeometry y="1785" width="160" height="120" as="geometry" />
        </mxCell>
        <mxCell id="Uqo3-tNyK38vOnIBA2kN-12" value="id (ID)" style="text;strokeColor=none;fillColor=none;align=left;verticalAlign=middle;spacingLeft=4;spacingRight=4;overflow=hidden;points=[[0,0.5],[1,0.5]];portConstraint=eastwest;rotatable=0;whiteSpace=wrap;html=1;" vertex="1" parent="Uqo3-tNyK38vOnIBA2kN-11">
          <mxGeometry y="30" width="160" height="30" as="geometry" />
        </mxCell>
        <mxCell id="Uqo3-tNyK38vOnIBA2kN-13" value="nconst" style="text;strokeColor=none;fillColor=none;align=left;verticalAlign=middle;spacingLeft=4;spacingRight=4;overflow=hidden;points=[[0,0.5],[1,0.5]];portConstraint=eastwest;rotatable=0;whiteSpace=wrap;html=1;" vertex="1" parent="Uqo3-tNyK38vOnIBA2kN-11">
          <mxGeometry y="60" width="160" height="30" as="geometry" />
        </mxCell>
        <mxCell id="Uqo3-tNyK38vOnIBA2kN-14" value="tconst" style="text;strokeColor=none;fillColor=none;align=left;verticalAlign=middle;spacingLeft=4;spacingRight=4;overflow=hidden;points=[[0,0.5],[1,0.5]];portConstraint=eastwest;rotatable=0;whiteSpace=wrap;html=1;" vertex="1" parent="Uqo3-tNyK38vOnIBA2kN-11">
          <mxGeometry y="90" width="160" height="30" as="geometry" />
        </mxCell>
        <mxCell id="Uqo3-tNyK38vOnIBA2kN-26" style="edgeStyle=orthogonalEdgeStyle;rounded=0;orthogonalLoop=1;jettySize=auto;html=1;noEdgeStyle=1;orthogonal=1;" edge="1" parent="1" source="Uqo3-tNyK38vOnIBA2kN-16" target="Uqo3-tNyK38vOnIBA2kN-2">
          <mxGeometry relative="1" as="geometry">
            <Array as="points">
              <mxPoint x="172" y="1695" />
              <mxPoint x="248" y="1690" />
            </Array>
          </mxGeometry>
        </mxCell>
        <mxCell id="Uqo3-tNyK38vOnIBA2kN-16" value="junction_titles_genre" style="swimlane;fontStyle=0;childLayout=stackLayout;horizontal=1;startSize=30;horizontalStack=0;resizeParent=1;resizeParentMax=0;resizeLast=0;collapsible=1;marginBottom=0;whiteSpace=wrap;html=1;" vertex="1" parent="1">
          <mxGeometry y="1635" width="160" height="120" as="geometry" />
        </mxCell>
        <mxCell id="Uqo3-tNyK38vOnIBA2kN-17" value="id (ID)" style="text;strokeColor=none;fillColor=none;align=left;verticalAlign=middle;spacingLeft=4;spacingRight=4;overflow=hidden;points=[[0,0.5],[1,0.5]];portConstraint=eastwest;rotatable=0;whiteSpace=wrap;html=1;" vertex="1" parent="Uqo3-tNyK38vOnIBA2kN-16">
          <mxGeometry y="30" width="160" height="30" as="geometry" />
        </mxCell>
        <mxCell id="Uqo3-tNyK38vOnIBA2kN-18" value="genre" style="text;strokeColor=none;fillColor=none;align=left;verticalAlign=middle;spacingLeft=4;spacingRight=4;overflow=hidden;points=[[0,0.5],[1,0.5]];portConstraint=eastwest;rotatable=0;whiteSpace=wrap;html=1;" vertex="1" parent="Uqo3-tNyK38vOnIBA2kN-16">
          <mxGeometry y="60" width="160" height="30" as="geometry" />
        </mxCell>
        <mxCell id="Uqo3-tNyK38vOnIBA2kN-19" value="tconst" style="text;strokeColor=none;fillColor=none;align=left;verticalAlign=middle;spacingLeft=4;spacingRight=4;overflow=hidden;points=[[0,0.5],[1,0.5]];portConstraint=eastwest;rotatable=0;whiteSpace=wrap;html=1;" vertex="1" parent="Uqo3-tNyK38vOnIBA2kN-16">
          <mxGeometry y="90" width="160" height="30" as="geometry" />
        </mxCell>
        <mxCell id="Uqo3-tNyK38vOnIBA2kN-27" style="edgeStyle=orthogonalEdgeStyle;rounded=0;orthogonalLoop=1;jettySize=auto;html=1;noEdgeStyle=1;orthogonal=1;" edge="1" parent="1" source="Uqo3-tNyK38vOnIBA2kN-20" target="aQMUI7H4iZoZkPq_P-1r-4">
          <mxGeometry relative="1" as="geometry">
            <Array as="points">
              <mxPoint x="172" y="1995" />
              <mxPoint x="248" y="2030" />
            </Array>
          </mxGeometry>
        </mxCell>
        <mxCell id="Uqo3-tNyK38vOnIBA2kN-20" value="junction_names_profession" style="swimlane;fontStyle=0;childLayout=stackLayout;horizontal=1;startSize=30;horizontalStack=0;resizeParent=1;resizeParentMax=0;resizeLast=0;collapsible=1;marginBottom=0;whiteSpace=wrap;html=1;" vertex="1" parent="1">
          <mxGeometry y="1935" width="160" height="120" as="geometry" />
        </mxCell>
        <mxCell id="Uqo3-tNyK38vOnIBA2kN-21" value="id (ID)" style="text;strokeColor=none;fillColor=none;align=left;verticalAlign=middle;spacingLeft=4;spacingRight=4;overflow=hidden;points=[[0,0.5],[1,0.5]];portConstraint=eastwest;rotatable=0;whiteSpace=wrap;html=1;" vertex="1" parent="Uqo3-tNyK38vOnIBA2kN-20">
          <mxGeometry y="30" width="160" height="30" as="geometry" />
        </mxCell>
        <mxCell id="Uqo3-tNyK38vOnIBA2kN-22" value="profession" style="text;strokeColor=none;fillColor=none;align=left;verticalAlign=middle;spacingLeft=4;spacingRight=4;overflow=hidden;points=[[0,0.5],[1,0.5]];portConstraint=eastwest;rotatable=0;whiteSpace=wrap;html=1;" vertex="1" parent="Uqo3-tNyK38vOnIBA2kN-20">
          <mxGeometry y="60" width="160" height="30" as="geometry" />
        </mxCell>
        <mxCell id="Uqo3-tNyK38vOnIBA2kN-23" value="tconst" style="text;strokeColor=none;fillColor=none;align=left;verticalAlign=middle;spacingLeft=4;spacingRight=4;overflow=hidden;points=[[0,0.5],[1,0.5]];portConstraint=eastwest;rotatable=0;whiteSpace=wrap;html=1;" vertex="1" parent="Uqo3-tNyK38vOnIBA2kN-20">
          <mxGeometry y="90" width="160" height="30" as="geometry" />
        </mxCell>
      </root>
    </mxGraphModel>
  </diagram>
</mxfile>
